<?xml version="1.0" encoding="UTF-8" standalone="no"?>
<!--Generator: Adobe Illustrator 24.3.0, SVG Export Plug-In . SVG Version: 6.00 Build 0)-->

<svg
   xml:space="preserve"
   id="svg1"
   version="1.1"
   viewBox="0 0 1600 1599.9999"
   sodipodi:docname="facebook.svg"
   inkscape:version="1.2.2 (732a01da63, 2022-12-09)"
   xmlns:inkscape="http://www.inkscape.org/namespaces/inkscape"
   xmlns:sodipodi="http://sodipodi.sourceforge.net/DTD/sodipodi-0.dtd"
   xmlns="http://www.w3.org/2000/svg"
   xmlns:svg="http://www.w3.org/2000/svg"><defs
     id="defs7" /><sodipodi:namedview
     id="namedview5"
     pagecolor="#ffffff"
     bordercolor="#000000"
     borderopacity="0.25"
     inkscape:showpageshadow="2"
     inkscape:pageopacity="0.0"
     inkscape:pagecheckerboard="0"
     inkscape:deskcolor="#d1d1d1"
     showgrid="false"
     inkscape:zoom="1.8561555"
     inkscape:cx="80.812195"
     inkscape:cy="134.68699"
     inkscape:window-width="1366"
     inkscape:window-height="705"
     inkscape:window-x="-8"
     inkscape:window-y="-8"
     inkscape:window-maximized="1"
     inkscape:current-layer="svg1" /><path
     id="path17"
     style="fill:#404040;fill-opacity:1;stroke-width:0.0125"
     d="M 10,0 C 4.4771723,0 0,4.477172 0,10 c 0,4.689559 3.2287304,8.623531 7.5840333,9.70437 V 13.05603 H 5.520044 V 9.9999511 H 7.5840333 V 8.68396 c 0,-3.4040382 1.5399636,-4.9800537 4.8801267,-4.9800537 0.631665,0 1.723764,0.1240225 2.17168,0.2480225 v 2.7680175 c -0.235833,-0.024 -0.64792,-0.035986 -1.155835,-0.035986 -1.639998,0 -2.271973,0.6199879 -2.271973,2.2359863 v 1.0800048 h 3.268213 L 13.91582,13.05603 h -2.703808 v 6.868238 C 16.162892,19.325671 20,15.112282 20,10 20,4.477172 15.522911,0 10,0 Z M 7.7126465,19.734057 c 0.1250212,0.02927 0.2505413,0.05704 0.3773194,0.08157 -0.1267588,-0.02452 -0.2523177,-0.05231 -0.3773194,-0.08157 z m 0.5796142,0.1177 c 0.1192104,0.02052 0.2390538,0.03896 0.3596681,0.05523 -0.120598,-0.01626 -0.2404742,-0.03471 -0.3596681,-0.05523 z m 2.8374513,0.08298 c -0.126307,0.01421 -0.253613,0.02501 -0.381299,0.03447 0.127701,-0.0095 0.254977,-0.02026 0.381299,-0.03447 z m -2.2029298,0.0072 c 0.027721,0.003 0.055342,0.0062 0.08313,0.0089 -0.027781,-0.0027 -0.055416,-0.006 -0.08313,-0.0089 z m 1.6411618,0.04102 C 10.379873,19.993471 10.190712,20 10,20 c 0.19072,0 0.37986,-0.0065 0.567944,-0.01706 z m -1.1179684,0.0014 c 0.029102,0.0016 0.058308,0.0027 0.087476,0.004 -0.029161,-0.0013 -0.05838,-0.0024 -0.087476,-0.004 z"
     inkscape:export-filename="path17.png"
     inkscape:export-xdpi="96"
     inkscape:export-ydpi="96" /></svg>
