<?xml version="1.0" encoding="UTF-8" standalone="no"?>
<!-- Generator: Adobe Illustrator 16.0.0, SVG Export Plug-In . SVG Version: 6.00 Build 0)  -->

<svg
   version="1.1"
   id="Layer_1"
   x="0px"
   y="0px"
   width="1024px"
   height="1024px"
   viewBox="0 0 1024 1024"
   enable-background="new 0 0 1024 1024"
   xml:space="preserve"
   sodipodi:docname="file-word.svg"
   inkscape:version="1.2.2 (732a01da63, 2022-12-09)"
   xmlns:inkscape="http://www.inkscape.org/namespaces/inkscape"
   xmlns:sodipodi="http://sodipodi.sourceforge.net/DTD/sodipodi-0.dtd"
   xmlns="http://www.w3.org/2000/svg"
   xmlns:svg="http://www.w3.org/2000/svg"><defs
   id="defs1460" /><sodipodi:namedview
   id="namedview1458"
   pagecolor="#ffffff"
   bordercolor="#000000"
   borderopacity="0.25"
   inkscape:showpageshadow="2"
   inkscape:pageopacity="0.0"
   inkscape:pagecheckerboard="0"
   inkscape:deskcolor="#d1d1d1"
   showgrid="false"
   inkscape:zoom="0.090632583"
   inkscape:cx="-1114.3895"
   inkscape:cy="-463.4095"
   inkscape:window-width="1366"
   inkscape:window-height="705"
   inkscape:window-x="-8"
   inkscape:window-y="-8"
   inkscape:window-maximized="1"
   inkscape:current-layer="g1455" />
<rect
   fill="none"
   width="1024"
   height="1024"
   id="rect1447" />
<g
   id="g1455">
	<g
   id="g1451">
		
	</g>
	<g
   id="g1796"><path
     fill="#050505"
     d="M 661.087,298 C 642.791,298 628,282.622 628,264.403 V 0 H 164.13 C 145.834,0 131,15.249 131,33.467 v 956.732 c 0,18.22 14.834,33.801 33.13,33.801 H 859.869 C 878.165,1024 893,1008.419 893,990.199 V 298 Z"
     id="path1449"
     sodipodi:nodetypes="sscsssssscs" /><text
     xml:space="preserve"
     style="font-size:705.118px;font-family:Calibri;-inkscape-font-specification:Calibri;text-align:center;text-anchor:middle;fill:#ffffff;stroke-width:49.9688"
     x="512.3252"
     y="910.9032"
     id="text1737"><tspan
       sodipodi:role="line"
       id="tspan1735"
       x="512.3252"
       y="910.9032"
       style="stroke-width:49.9688;font-weight:bold">W</tspan></text><polygon
     fill="#050505"
     points="743.913,0 694,0 694,215 893,215 893,165.431  "
     id="polygon1453" /></g><path
   fill="#050505"
   d="m 1666.2015,310.09408 c -18.296,0 -33.087,-15.378 -33.087,-33.597 V 12.094079 h -463.87 c -18.296,0 -33.13,15.249 -33.13,33.467 V 1002.2931 c 0,18.22 14.834,33.801 33.13,33.801 h 695.739 c 18.296,0 33.131,-15.581 33.131,-33.801 V 310.09408 Z"
   id="path1449-7"
   sodipodi:nodetypes="sscsssssscs" /><text
   xml:space="preserve"
   style="font-size:705.118px;font-family:Calibri;-inkscape-font-specification:Calibri;text-align:center;text-anchor:middle;fill:#ffffff;stroke-width:49.9688"
   x="1517.4397"
   y="922.99725"
   id="text1737-7"><tspan
     sodipodi:role="line"
     id="tspan1735-3"
     x="1517.4397"
     y="922.99725"
     style="stroke-width:49.9688;font-weight:bold">P</tspan></text><polygon
   fill="#050505"
   points="694,0 694,215 893,215 893,165.431 743.913,0 "
   id="polygon1453-2"
   transform="translate(1005.1145,12.094079)" /><path
   fill="#050505"
   d="m -435.6917,315.61086 c -18.296,0 -33.087,-15.378 -33.087,-33.597 V 17.610858 h -463.87 c -18.296,0 -33.13,15.249 -33.13,33.467 V 1007.8099 c 0,18.22 14.834,33.801 33.13,33.801 h 695.739 c 18.296,0 33.131,-15.581 33.131,-33.801 V 315.61086 Z"
   id="path1449-7-1"
   sodipodi:nodetypes="sscsssssscs" /><text
   xml:space="preserve"
   style="font-size:705.118px;font-family:Calibri;-inkscape-font-specification:Calibri;text-align:center;text-anchor:middle;fill:#ffffff;stroke-width:49.9688"
   x="-584.45349"
   y="928.51404"
   id="text1737-7-6"><tspan
     sodipodi:role="line"
     id="tspan1735-3-8"
     x="-584.45349"
     y="928.51404"
     style="stroke-width:49.9688;font-weight:bold">X</tspan></text><polygon
   fill="#050505"
   points="893,215 893,165.431 743.913,0 694,0 694,215 "
   id="polygon1453-2-2"
   transform="translate(-1096.7787,17.610858)" /><g
   id="g1796-0-3-7"
   transform="translate(-1096.7787,-1218.1478)"><path
     fill="#050505"
     d="M 661.087,298 C 642.791,298 628,282.622 628,264.403 V 0 H 164.13 C 145.834,0 131,15.249 131,33.467 v 956.732 c 0,18.22 14.834,33.801 33.13,33.801 H 859.869 C 878.165,1024 893,1008.419 893,990.199 V 298 Z"
     id="path1449-7-1-2"
     sodipodi:nodetypes="sscsssssscs" /><text
     xml:space="preserve"
     style="font-size:426.667px;font-family:Calibri;-inkscape-font-specification:Calibri;text-align:center;text-anchor:middle;fill:#ffffff;stroke-width:49.9688"
     x="512.3252"
     y="910.9032"
     id="text1737-7-6-0"><tspan
       sodipodi:role="line"
       id="tspan1735-3-8-0"
       x="512.3252"
       y="910.9032"
       style="font-size:426.667px;stroke-width:49.9688;font-weight:bold">PDF</tspan></text><polygon
     fill="#050505"
     points="893,215 893,165.431 743.913,0 694,0 694,215 "
     id="polygon1453-2-2-6" /></g><path
   fill="#050505"
   d="m 1671.7182,-920.1478 c -18.296,0 -33.087,-15.378 -33.087,-33.597 v -264.403 h -463.87 c -18.296,0 -33.13,15.249 -33.13,33.467 v 956.732 c 0,18.22 14.834,33.801 33.13,33.801 h 695.739 c 18.296,0 33.131,-15.581 33.131,-33.801 v -692.199 z"
   id="path1449-7-1-2-3-0"
   sodipodi:nodetypes="sscsssssscs"
   inkscape:export-filename="filepng"
   inkscape:export-xdpi="96"
   inkscape:export-ydpi="96" /><polygon
   fill="#050505"
   points="893,165.431 743.913,0 694,0 694,215 893,215 "
   id="polygon1453-2-2-6-3-8"
   transform="translate(1010.6312,-1218.1478)" />
<g
   id="g2699"><rect
     style="fill:#ffffff;stroke-width:19.1329"
     id="rect2379-8"
     width="596.93286"
     height="442.03348"
     x="-1863.7319"
     y="459.62433" /><g
     id="g2189"
     transform="translate(-2066.2318)">
	<path
   fill="#050505"
   d="M 628,264.403 V 0 H 164.13 C 145.834,0 131,15.249 131,33.467 v 956.732 c 0,18.22 14.834,33.801 33.13,33.801 H 859.869 C 878.165,1024 893,1008.419 893,990.199 V 298 H 661.087 C 642.791,298 628,282.622 628,264.403 Z M 369,776 H 309.899 C 297.702,776 286,769.219 286,757.009 V 599.529 C 286,586.933 297.702,577 309.899,577 H 369 Z m 132,47.007 c 0,18.928 -15.803,29.431 -31.107,18.138 L 402,786.875 V 569.631 l 67.893,-54.624 C 484.389,503.747 501,514.266 501,533.194 Z m 59.384,-11.438 c -6.374,0 -13.233,-2.4 -18.475,-7.651 -9.723,-10.004 -9.723,-27.063 0,-37.293 49.502,-48.824 49.502,-128.24 0,-177.534 -9.723,-9.761 -9.723,-27.063 0,-37.275 10.515,-10.003 27.663,-10.003 37.789,0 69.917,69.526 69.917,182.866 -0.55,251.619 -5.046,5.347 -12.019,8.134 -18.764,8.134 z m 85.608,52.209 c -4.4,4.896 -11.519,7.265 -18.377,7.265 -6.406,0 -13.007,-2.368 -18.248,-7.587 -10.45,-10.214 -10.45,-27.272 0,-37.276 39.375,-39.628 61.408,-91.803 61.408,-148.168 0,-55.64 -22.033,-108.381 -61.408,-148.039 -10.45,-9.715 -10.45,-30.448 0,-40.451 C 614.123,484.72 620.756,479 627.21,479 h 0.81 c 6.454,0 13.572,5.72 17.973,10.988 49.841,49.63 77.229,116.895 77.229,186.871 -10e-4,70.041 -27.712,137.53 -77.23,186.919 z"
   id="path2185" />
	<polygon
   fill="#050505"
   points="743.913,0 694,0 694,215 893,215 893,165.431 "
   id="polygon2187" />
</g></g><g
   id="g2677"><rect
     style="fill:#ffffff;stroke-width:22.5806"
     id="rect2379"
     width="619"
     height="593.74493"
     x="-1863.7318"
     y="-890.95996" /><g
     id="g2059"
     transform="translate(-2067.7318,-1240.215)">
	<path
   fill="#050505"
   d="M 628,264.403 V 0 H 164.13 C 145.834,0 131,15.249 131,33.467 v 956.732 c 0,18.22 14.834,33.801 33.13,33.801 H 859.869 C 878.165,1024 893,1008.419 893,990.199 V 298 H 661.087 C 642.791,298 628,282.622 628,264.403 Z m -291.562,97.651 c 67.433,0 122.096,54.663 122.096,122.096 0,67.432 -54.663,122.095 -122.096,122.095 -67.433,0 -122.096,-54.663 -122.096,-122.095 0,-67.433 54.662,-122.096 122.096,-122.096 z M 823,683.489 V 943 H 204 V 842.962 L 327.529,723.358 450.964,850.437 715.472,571.362 Z"
   id="path2055" />
	<polygon
   fill="#050505"
   points="694,215 893,215 893,165.431 743.913,0 694,0 "
   id="polygon2057" />
</g></g><g
   id="g2693"><path
     fill="#050505"
     d="m 661.087,-920.1478 c -18.296,0 -33.087,-15.378 -33.087,-33.597 v -264.403 H 164.13 c -18.296,0 -33.13,15.249 -33.13,33.467 v 956.732 c 0,18.22 14.834,33.801 33.13,33.801 h 695.739 c 18.296,0 33.131,-15.581 33.131,-33.801 v -692.199 z"
     id="path1449-7-1-2-3"
     sodipodi:nodetypes="sscsssssscs" /><polygon
     fill="#050505"
     points="694,215 893,215 893,165.431 743.913,0 694,0 "
     id="polygon1453-2-2-6-3"
     transform="translate(0,-1218.1478)" /><rect
     style="fill:#ffffff;stroke-width:39.7664"
     id="rect2420"
     width="608.15894"
     height="466.39395"
     x="207.92053"
     y="-772.38855" /><rect
     style="fill:#000000;stroke-width:18.8976"
     id="rect2466"
     width="510.30212"
     height="60.684566"
     x="256.84894"
     y="-732.30261" /><rect
     style="fill:#000000;stroke-width:18.8976"
     id="rect2466-1"
     width="510.30212"
     height="60.684566"
     x="256.84894"
     y="-623.7901" /><rect
     style="fill:#000000;stroke-width:18.8976"
     id="rect2466-3-0"
     width="510.30212"
     height="60.684566"
     x="256.84894"
     y="-515.27759" /><rect
     style="fill:#000000;stroke-width:18.8976"
     id="rect2466-3-0-9"
     width="510.30212"
     height="60.684566"
     x="256.84894"
     y="-406.76511" /></g></g>
</svg>
