<?xml version="1.0" encoding="utf-8"?>
<!-- Generator: Adobe Illustrator 16.0.0, SVG Export Plug-In . SVG Version: 6.00 Build 0)  -->
<!DOCTYPE svg PUBLIC "-//W3C//DTD SVG 1.1//EN" "http://www.w3.org/Graphics/SVG/1.1/DTD/svg11.dtd">
<svg version="1.1" id="Layer_1" xmlns="http://www.w3.org/2000/svg" xmlns:xlink="http://www.w3.org/1999/xlink" x="0px" y="0px"
	 width="1024px" height="1024px" viewBox="0 0 1024 1024" enable-background="new 0 0 1024 1024" xml:space="preserve">
<rect fill="none" width="1024" height="1024"/>
<g>
	<path fill="#050505" d="M628,264.403V0H164.13C145.834,0,131,15.249,131,33.467v956.732c0,18.22,14.834,33.801,33.13,33.801
		h695.739c18.296,0,33.131-15.581,33.131-33.801V298H661.087C642.791,298,628,282.622,628,264.403z M336.438,362.054
		c67.433,0,122.096,54.663,122.096,122.096c0,67.432-54.663,122.095-122.096,122.095c-67.433,0-122.096-54.663-122.096-122.095
		C214.342,416.717,269.004,362.054,336.438,362.054z M823,683.489V943H204V842.962l123.529-119.604l123.435,127.079l264.508-279.075
		L823,683.489z"/>
	<polygon fill="#050505" points="743.913,0 694,0 694,215 893,215 893,165.431 	"/>
</g>
</svg>
