<?xml version="1.0" encoding="utf-8"?>
<!-- Generator: Adobe Illustrator 16.0.0, SVG Export Plug-In . SVG Version: 6.00 Build 0)  -->
<!DOCTYPE svg PUBLIC "-//W3C//DTD SVG 1.1//EN" "http://www.w3.org/Graphics/SVG/1.1/DTD/svg11.dtd">
<svg version="1.1" id="Layer_1" xmlns="http://www.w3.org/2000/svg" xmlns:xlink="http://www.w3.org/1999/xlink" x="0px" y="0px"
	 width="1024px" height="1024px" viewBox="0 0 1024 1024" enable-background="new 0 0 1024 1024" xml:space="preserve">
<rect fill="none" width="1024" height="1024"/>
<g>
	<path fill="#050505" d="M628,264.403V0H164.13C145.834,0,131,15.249,131,33.467v956.732c0,18.22,14.834,33.801,33.13,33.801
		h695.739c18.296,0,33.131-15.581,33.131-33.801V298H661.087C642.791,298,628,282.622,628,264.403z M369,776h-59.101
		C297.702,776,286,769.219,286,757.009V599.529C286,586.933,297.702,577,309.899,577H369V776z M501,823.007
		c0,18.928-15.803,29.431-31.107,18.138L402,786.875V569.631l67.893-54.624c14.496-11.26,31.107-0.741,31.107,18.187V823.007z
		 M560.384,811.569c-6.374,0-13.233-2.4-18.475-7.651c-9.723-10.004-9.723-27.063,0-37.293c49.502-48.824,49.502-128.24,0-177.534
		c-9.723-9.761-9.723-27.063,0-37.275c10.515-10.003,27.663-10.003,37.789,0c69.917,69.526,69.917,182.866-0.55,251.619
		C574.102,808.782,567.129,811.569,560.384,811.569z M645.992,863.778c-4.4,4.896-11.519,7.265-18.377,7.265
		c-6.406,0-13.007-2.368-18.248-7.587c-10.45-10.214-10.45-27.272,0-37.276c39.375-39.628,61.408-91.803,61.408-148.168
		c0-55.64-22.033-108.381-61.408-148.039c-10.45-9.715-10.45-30.448,0-40.451C614.123,484.72,620.756,479,627.21,479h0.81
		c6.454,0,13.572,5.72,17.973,10.988c49.841,49.63,77.229,116.895,77.229,186.871C723.221,746.9,695.51,814.389,645.992,863.778z"/>
	<polygon fill="#050505" points="743.913,0 694,0 694,215 893,215 893,165.431 	"/>
</g>
</svg>
