<?xml version="1.0" encoding="UTF-8" standalone="no"?>
<!-- Created with Inkscape (http://www.inkscape.org/) -->

<svg
   width="210mm"
   height="297mm"
   viewBox="0 0 210 297"
   version="1.1"
   id="svg5"
   inkscape:version="1.2.2 (732a01da63, 2022-12-09)"
   sodipodi:docname="find.svg"
   xmlns:inkscape="http://www.inkscape.org/namespaces/inkscape"
   xmlns:sodipodi="http://sodipodi.sourceforge.net/DTD/sodipodi-0.dtd"
   xmlns="http://www.w3.org/2000/svg"
   xmlns:svg="http://www.w3.org/2000/svg">
  <sodipodi:namedview
     id="namedview7"
     pagecolor="#ffffff"
     bordercolor="#000000"
     borderopacity="0.25"
     inkscape:showpageshadow="2"
     inkscape:pageopacity="0.0"
     inkscape:pagecheckerboard="0"
     inkscape:deskcolor="#d1d1d1"
     inkscape:document-units="mm"
     showgrid="false"
     inkscape:zoom="0.46769779"
     inkscape:cx="560.1908"
     inkscape:cy="558.05266"
     inkscape:window-width="1366"
     inkscape:window-height="705"
     inkscape:window-x="-8"
     inkscape:window-y="-8"
     inkscape:window-maximized="1"
     inkscape:current-layer="layer1" />
  <defs
     id="defs2" />
  <g
     inkscape:label="Layer 1"
     inkscape:groupmode="layer"
     id="layer1">
    <rect
       style="fill:#000000;fill-opacity:1;stroke:none;stroke-width:2.014;stroke-opacity:1"
       id="rect234"
       width="44.979168"
       height="9.2930698"
       x="-182.3927"
       y="-37.917114"
       ry="4.6465349"
       transform="rotate(-135)" />
    <rect
       style="fill:#000000;fill-opacity:1;stroke:none;stroke-width:0.243243;stroke-opacity:1"
       id="rect234-8"
       width="7.1281381"
       height="0.85537648"
       x="-224.44542"
       y="-68.606522"
       ry="0.42768824"
       transform="rotate(-135)" />
    <rect
       style="fill:#000000;fill-opacity:1;stroke:none;stroke-width:1.35431;stroke-opacity:1"
       id="rect234-8-0"
       width="39.6875"
       height="4.7624998"
       x="-104.49583"
       y="-192.69118"
       ry="2.3812499"
       transform="scale(-1)" />
    <rect
       style="fill:#f05757;fill-opacity:1;stroke:none;stroke-width:0.180575;stroke-opacity:1"
       id="rect234-8-0-8"
       width="5.2916665"
       height="0.63499999"
       x="-96.09584"
       y="-205.40904"
       ry="0.3175"
       transform="scale(-1)" />
    <rect
       style="fill:#f05757;fill-opacity:1;stroke:none;stroke-width:0.210873;stroke-dasharray:none;stroke-opacity:1"
       id="rect234-8-0-8-5-3"
       width="7.2197318"
       height="0.63493425"
       x="70.788704"
       y="-219.2549"
       ry="0.31746712"
       transform="rotate(135)"
       inkscape:export-filename="..\..\Users\Tran\Desktop\close.png"
       inkscape:export-xdpi="96"
       inkscape:export-ydpi="96" />
    <rect
       style="fill:#000000;fill-opacity:1;stroke:none;stroke-width:2.67543;stroke-opacity:1"
       id="rect234-8-2"
       width="79.375"
       height="9.2929602"
       x="50.014145"
       y="-145.45071"
       ry="4.6464801"
       transform="rotate(90)" />
    <circle
       style="fill:none;fill-opacity:1;stroke:#000000;stroke-width:7.4258;stroke-opacity:1"
       id="path396"
       cx="-112.41353"
       cy="-33.27058"
       r="25"
       transform="rotate(-135)" />
    <rect
       style="fill:#000000;fill-opacity:1;stroke:none;stroke-width:0.197417;stroke-opacity:1"
       id="rect1228-3"
       width="5.2916665"
       height="0.75898421"
       x="-135.33168"
       y="-189.03818"
       ry="0.3794921"
       transform="scale(-1)"
       inkscape:export-filename="rect1228.png"
       inkscape:export-xdpi="96"
       inkscape:export-ydpi="96" />
    <rect
       style="fill:#00ffff;fill-opacity:1;stroke:none;stroke-width:0.263487;stroke-opacity:1"
       id="rect1228-3-5"
       width="7.0626469"
       height="1.0129961"
       x="-226.44048"
       y="-58.71225"
       ry="0.50649804"
       transform="rotate(-135)"
       inkscape:export-filename="rect1228.png"
       inkscape:export-xdpi="96"
       inkscape:export-ydpi="96" />
    <path
       id="rect591"
       style="fill:#ffffff;stroke-width:2.39025"
       d="m 138.49977,188.47484 c -0.4432,0 -0.79995,0.35676 -0.79995,0.79995 v 3.69177 c 0,0.4432 0.35675,0.79995 0.79995,0.79995 h 3.69177 c 0.4432,0 0.79995,-0.35675 0.79995,-0.79995 v -3.69177 c 0,-0.44319 -0.35675,-0.79995 -0.79995,-0.79995 z m 0.52969,0.75913 h 2.63239 c 0.31607,0 0.57051,0.25444 0.57051,0.57051 v 2.6324 c 0,0.31606 -0.25444,0.5705 -0.57051,0.5705 h -2.63239 c -0.31607,0 -0.57051,-0.25444 -0.57051,-0.5705 v -2.6324 c 0,-0.31607 0.25444,-0.57051 0.57051,-0.57051 z"
       inkscape:export-filename="..\..\Users\Tran\Desktop\maximize.png"
       inkscape:export-xdpi="96"
       inkscape:export-ydpi="96" />
    <rect
       style="fill:#000000;stroke-width:3.86649"
       id="rect294"
       width="5.2916665"
       height="5.2916684"
       x="123.32359"
       y="188.47484"
       ry="0.39687499" />
    <g
       id="g438"
       transform="translate(-12.745222,-61.769946)">
      <rect
         style="fill:#000000;stroke-width:2.89987"
         id="rect294-8-1"
         width="3.9687486"
         height="3.96875"
         x="132.92081"
         y="261.7269"
         ry="0.29765615" />
      <rect
         style="fill:#00ffff;stroke-width:1.79074"
         id="rect294-8-3-4"
         width="2.4507928"
         height="2.4507935"
         x="133.67978"
         y="262.48587"
         ry="0.18380946" />
    </g>
    <rect
       style="fill:#00ffff;stroke-width:2.75735"
       id="rect294-1"
       width="3.7736983"
       height="3.7736993"
       x="124.08257"
       y="189.23383"
       ry="0.28302744" />
    <rect
       style="fill:#000000;stroke-width:2.89987"
       id="rect294-8"
       width="3.9687486"
       height="3.96875"
       x="118.85267"
       y="201.27986"
       ry="0.29765615" />
    <rect
       style="fill:#00ffff;stroke-width:1.79074"
       id="rect294-8-3"
       width="2.4507928"
       height="2.4507935"
       x="119.61164"
       y="202.03883"
       ry="0.18380946" />
    <path
       id="rect294-8-36"
       style="fill:#ffffff;fill-opacity:1;stroke-width:2.89987"
       d="m 128.29885,199.55685 c -0.16491,0 -0.29766,0.13276 -0.29766,0.29766 v 1.02526 h -1.02578 c -0.1649,0 -0.29765,0.13276 -0.29765,0.29766 v 3.37343 c 0,0.1649 0.13275,0.29766 0.29765,0.29766 h 3.37344 c 0.1649,0 0.29766,-0.13276 0.29766,-0.29766 v -1.02526 h 1.02526 c 0.1649,0 0.29765,-0.13275 0.29765,-0.29765 v -3.37344 c 0,-0.1649 -0.13275,-0.29766 -0.29765,-0.29766 z m 0.63562,0.75913 c 0.003,-1.6e-4 0.006,0 0.009,0 h 2.08308 c 0.10184,0 0.18397,0.0821 0.18397,0.18397 v 2.08308 c 0,0.10183 -0.0821,0.18345 -0.18397,0.18345 h -0.37982 v -1.58905 c 0,-0.1649 -0.13276,-0.29766 -0.29766,-0.29766 h -1.58905 v -0.37982 c 0,-0.0986 0.0773,-0.17906 0.17467,-0.18397 z m -1.31362,1.32292 h 2.08308 c 0.10183,0 0.18397,0.0821 0.18397,0.18397 v 2.08307 c 0,0.10183 -0.0821,0.18397 -0.18397,0.18397 h -2.08308 c -0.10183,0 -0.18397,-0.0821 -0.18397,-0.18397 v -2.08307 c 0,-0.10183 0.0821,-0.18397 0.18397,-0.18397 z"
       inkscape:export-filename="..\..\Users\Tran\Desktop\normal.png"
       inkscape:export-xdpi="96"
       inkscape:export-ydpi="96" />
    <rect
       style="fill:#f05757;fill-opacity:1;stroke:none;stroke-width:0.180575;stroke-opacity:1"
       id="rect1391"
       width="5.2916665"
       height="0.63499999"
       x="-96.09584"
       y="-210.06572"
       ry="0.3175"
       transform="scale(-1)" />
    <rect
       style="fill:#000000;fill-opacity:1;stroke:none;stroke-width:0.446325;stroke-linecap:round;stroke-dasharray:none;stroke-opacity:1"
       id="rect1445"
       width="5.2916665"
       height="5.2916665"
       x="84.788597"
       y="204.77403"
       ry="0.30000001" />
    <rect
       style="fill:#000000;fill-opacity:1;stroke:none;stroke-width:0.334744;stroke-linecap:round;stroke-dasharray:none;stroke-opacity:1"
       id="rect1445-9"
       width="3.96875"
       height="3.96875"
       x="79.792641"
       y="211.41377"
       ry="0.22500001" />
    <rect
       style="fill:#00ff00;fill-opacity:1;stroke:none;stroke-width:0.227625;stroke-linecap:round;stroke-dasharray:none;stroke-opacity:1"
       id="rect1445-9-5"
       width="2.6987402"
       height="2.6987402"
       x="80.427643"
       y="212.04878"
       ry="0.15299945" />
    <path
       id="rect1445-9-2"
       style="fill:#ff00ff;fill-opacity:1;stroke:none;stroke-width:0.334744;stroke-linecap:round;stroke-dasharray:none;stroke-opacity:1"
       d="m 80.270162,204.78759 c -0.12465,0 -0.224793,0.10015 -0.224793,0.2248 v 1.09812 h -1.098124 c -0.12465,0 -0.224792,0.10014 -0.224792,0.22479 v 3.51865 c 0,0.12465 0.100142,0.22531 0.224792,0.22531 h 3.518648 c 0.12465,0 0.22531,-0.10066 0.22531,-0.22531 v -1.09761 h 1.097607 c 0.12465,0 0.225309,-0.10066 0.225309,-0.22531 v -3.51864 c 0,-0.12465 -0.100659,-0.2248 -0.225309,-0.2248 z m 0.563273,0.63459 h 2.392619 c 0.0848,0 0.152962,0.0687 0.152962,0.15348 v 2.39262 c 0,0.0848 -0.0682,0.15296 -0.152962,0.15296 h -0.534851 v -1.78594 c 0,-0.12465 -0.10066,-0.22479 -0.22531,-0.22479 h -1.78542 v -0.53485 c 0,-0.0848 0.0682,-0.15348 0.152962,-0.15348 z m -1.322917,1.32292 h 2.392619 c 0.08476,0 0.152962,0.0687 0.152962,0.15348 v 2.39261 c 0,0.0848 -0.0682,0.15297 -0.152962,0.15297 h -2.392619 c -0.08476,0 -0.152962,-0.0682 -0.152962,-0.15297 v -2.39261 c 0,-0.0848 0.0682,-0.15348 0.152962,-0.15348 z"
       inkscape:export-filename="..\..\Users\Tran\Desktop\normal.png"
       inkscape:export-xdpi="96"
       inkscape:export-ydpi="96" />
    <rect
       style="fill:#00ff00;fill-opacity:1;stroke:none;stroke-width:0.339208;stroke-linecap:round;stroke-dasharray:none;stroke-opacity:1"
       id="rect1445-5"
       width="4.0216775"
       height="4.0216775"
       x="85.423592"
       y="205.40901"
       ry="0.22800061" />
    <path
       id="rect1445-3"
       style="fill:#00ffff;fill-opacity:1;stroke:none;stroke-width:0.446325;stroke-linecap:round;stroke-dasharray:none;stroke-opacity:1"
       d="m 93.691934,210.80521 c -0.1662,0 -0.30023,0.13404 -0.30023,0.30024 v 4.6917 c 0,0.1662 0.13403,0.29972 0.30023,0.29972 h 4.69171 c 0.1662,0 0.29972,-0.13352 0.29972,-0.29972 v -4.6917 c 0,-0.1662 -0.13352,-0.30024 -0.29972,-0.30024 z m 0.56276,0.6351 h 3.56568 c 0.12631,0 0.22789,0.10158 0.22789,0.22789 v 3.56568 c 0,0.12631 -0.10158,0.22789 -0.22789,0.22789 h -3.56568 c -0.12631,0 -0.22789,-0.10158 -0.22789,-0.22789 v -3.56568 c 0,-0.12631 0.10158,-0.22789 0.22789,-0.22789 z"
       inkscape:export-filename="..\..\Users\Tran\Desktop\maximize.png"
       inkscape:export-xdpi="96"
       inkscape:export-ydpi="96" />
    <rect
       style="fill:#f05757;fill-opacity:1;stroke:none;stroke-width:0.180575;stroke-opacity:1"
       id="rect1541"
       width="5.2916665"
       height="0.63499999"
       x="-91.095581"
       y="-212.04878"
       ry="0.3175"
       transform="scale(-1)" />
    <rect
       style="fill:#f05757;fill-opacity:1;stroke:none;stroke-width:0.180575;stroke-opacity:1"
       id="rect1543"
       width="5.2916665"
       height="0.63499999"
       x="-90.795563"
       y="-215.38252"
       ry="0.3175"
       transform="scale(-1)" />
  </g>
</svg>
